<mxfile host="65bd71144e">
    <diagram id="0kmJuMv6TO6HSkgyLKZW" name="Page-1">
        <mxGraphModel dx="1955" dy="2528" grid="1" gridSize="10" guides="1" tooltips="1" connect="1" arrows="1" fold="1" page="1" pageScale="1" pageWidth="850" pageHeight="1100" math="0" shadow="0">
            <root>
                <mxCell id="0"/>
                <mxCell id="1" parent="0"/>
                <mxCell id="18" value="" style="edgeStyle=none;html=1;fontFamily=Comic Sans MS;" parent="1" source="2" target="3" edge="1">
                    <mxGeometry relative="1" as="geometry"/>
                </mxCell>
                <mxCell id="19" value="" style="edgeStyle=none;html=1;fontFamily=Comic Sans MS;" parent="1" source="2" target="4" edge="1">
                    <mxGeometry relative="1" as="geometry"/>
                </mxCell>
                <mxCell id="2" value="&lt;h1&gt;Full Stack Web Development&amp;nbsp;&lt;/h1&gt;" style="rounded=1;whiteSpace=wrap;html=1;fillColor=#1ba1e2;fontColor=#ffffff;strokeColor=#006EAF;align=center;fontFamily=Comic Sans MS;" parent="1" vertex="1">
                    <mxGeometry x="240" y="-1070" width="325" height="60" as="geometry"/>
                </mxCell>
                <mxCell id="3" value="&lt;h1&gt;Frontend&lt;/h1&gt;&lt;div&gt;&lt;br&gt;&lt;/div&gt;" style="rounded=1;whiteSpace=wrap;html=1;fontFamily=Comic Sans MS;fillColor=#008a00;fontColor=#ffffff;strokeColor=#005700;" parent="1" vertex="1">
                    <mxGeometry y="-950" width="120" height="60" as="geometry"/>
                </mxCell>
                <mxCell id="9" value="" style="edgeStyle=none;html=1;fontFamily=Comic Sans MS;" parent="1" source="4" target="8" edge="1">
                    <mxGeometry relative="1" as="geometry"/>
                </mxCell>
                <mxCell id="4" value="&lt;h1&gt;Backend&lt;/h1&gt;" style="rounded=1;whiteSpace=wrap;html=1;fontFamily=Comic Sans MS;fillColor=#a20025;fontColor=#ffffff;strokeColor=#6F0000;" parent="1" vertex="1">
                    <mxGeometry x="735" y="-970" width="120" height="60" as="geometry"/>
                </mxCell>
                <mxCell id="11" value="" style="edgeStyle=none;html=1;fontFamily=Comic Sans MS;" parent="1" source="8" target="10" edge="1">
                    <mxGeometry relative="1" as="geometry"/>
                </mxCell>
                <mxCell id="15" value="" style="edgeStyle=none;html=1;fontFamily=Comic Sans MS;" parent="1" source="8" target="14" edge="1">
                    <mxGeometry relative="1" as="geometry"/>
                </mxCell>
                <mxCell id="17" value="" style="edgeStyle=none;html=1;fontFamily=Comic Sans MS;" parent="1" source="8" target="16" edge="1">
                    <mxGeometry relative="1" as="geometry"/>
                </mxCell>
                <mxCell id="20" value="" style="edgeStyle=none;html=1;fontFamily=Comic Sans MS;" parent="1" source="8" target="12" edge="1">
                    <mxGeometry relative="1" as="geometry"/>
                </mxCell>
                <mxCell id="32" value="" style="edgeStyle=none;html=1;fontFamily=Comic Sans MS;" parent="1" source="8" target="10" edge="1">
                    <mxGeometry relative="1" as="geometry"/>
                </mxCell>
                <mxCell id="33" value="" style="edgeStyle=none;html=1;fontFamily=Comic Sans MS;" parent="1" source="8" target="14" edge="1">
                    <mxGeometry relative="1" as="geometry"/>
                </mxCell>
                <mxCell id="39" value="" style="edgeStyle=none;html=1;fontFamily=Comic Sans MS;" parent="1" source="8" target="14" edge="1">
                    <mxGeometry relative="1" as="geometry"/>
                </mxCell>
                <mxCell id="54" style="edgeStyle=none;html=1;exitX=1;exitY=0.5;exitDx=0;exitDy=0;entryX=0;entryY=0.5;entryDx=0;entryDy=0;fontFamily=Comic Sans MS;fontSize=12;fontColor=#FFF3F0;" parent="1" source="8" target="43" edge="1">
                    <mxGeometry relative="1" as="geometry"/>
                </mxCell>
                <mxCell id="63" style="edgeStyle=none;html=1;exitX=0.25;exitY=1;exitDx=0;exitDy=0;entryX=0.5;entryY=0;entryDx=0;entryDy=0;fontFamily=Comic Sans MS;fontSize=12;fontColor=#FFF3F0;" parent="1" source="8" target="36" edge="1">
                    <mxGeometry relative="1" as="geometry"/>
                </mxCell>
                <mxCell id="8" value="&lt;h1&gt;Node Js Run-time Enviroment&lt;/h1&gt;" style="whiteSpace=wrap;html=1;fontFamily=Comic Sans MS;fillColor=#e3c800;strokeColor=#B09500;fontColor=#000000;rounded=1;arcSize=0;" parent="1" vertex="1">
                    <mxGeometry x="690" y="-840" width="210" height="110" as="geometry"/>
                </mxCell>
                <mxCell id="10" value="&lt;h1&gt;Npm Integration&lt;/h1&gt;" style="whiteSpace=wrap;html=1;fontFamily=Comic Sans MS;fillColor=#e3c800;strokeColor=#B09500;fontColor=#000000;rounded=1;" parent="1" vertex="1">
                    <mxGeometry x="790" y="-467.5" width="180" height="75" as="geometry"/>
                </mxCell>
                <mxCell id="12" value="&lt;h1&gt;Node JS Express&lt;/h1&gt;" style="whiteSpace=wrap;html=1;fontFamily=Comic Sans MS;fillColor=#e3c800;strokeColor=#B09500;fontColor=#000000;rounded=1;" parent="1" vertex="1">
                    <mxGeometry x="990" y="-570" width="120" height="60" as="geometry"/>
                </mxCell>
                <mxCell id="22" value="" style="edgeStyle=none;html=1;fontFamily=Comic Sans MS;" parent="1" source="14" target="21" edge="1">
                    <mxGeometry relative="1" as="geometry"/>
                </mxCell>
                <mxCell id="35" value="" style="edgeStyle=none;html=1;fontFamily=Comic Sans MS;" parent="1" source="14" target="34" edge="1">
                    <mxGeometry relative="1" as="geometry"/>
                </mxCell>
                <mxCell id="14" value="&lt;h1&gt;JavaScript Programming&lt;/h1&gt;" style="whiteSpace=wrap;html=1;fontFamily=Comic Sans MS;fillColor=#e3c800;strokeColor=#B09500;fontColor=#000000;rounded=1;" parent="1" vertex="1">
                    <mxGeometry x="675" y="-170" width="220" height="75" as="geometry"/>
                </mxCell>
                <mxCell id="16" value="&lt;h1&gt;Local Host Protocole &amp;amp; Local Port&lt;/h1&gt;" style="whiteSpace=wrap;html=1;fontFamily=Comic Sans MS;fillColor=#e3c800;strokeColor=#B09500;fontColor=#000000;rounded=1;" parent="1" vertex="1">
                    <mxGeometry x="380" y="-600" width="160" height="100" as="geometry"/>
                </mxCell>
                <mxCell id="26" value="" style="edgeStyle=none;html=1;fontFamily=Comic Sans MS;" parent="1" source="21" target="25" edge="1">
                    <mxGeometry relative="1" as="geometry"/>
                </mxCell>
                <mxCell id="28" value="" style="edgeStyle=none;html=1;fontFamily=Comic Sans MS;" parent="1" source="21" target="27" edge="1">
                    <mxGeometry relative="1" as="geometry"/>
                </mxCell>
                <mxCell id="31" value="" style="edgeStyle=none;html=1;fontFamily=Comic Sans MS;" parent="1" source="21" target="30" edge="1">
                    <mxGeometry relative="1" as="geometry"/>
                </mxCell>
                <mxCell id="21" value="&lt;h1 style=&quot;box-sizing: inherit; font-size: 32px; font-family: &amp;quot;Segoe UI&amp;quot;, Arial, sans-serif; font-weight: 400; margin: 10px 0px; text-align: start;&quot;&gt;&lt;span style=&quot;background-color: rgb(255, 255, 153);&quot;&gt;Asynchronous JavaScript&lt;/span&gt;&lt;/h1&gt;" style="whiteSpace=wrap;html=1;fontFamily=Comic Sans MS;fillColor=#f0a30a;strokeColor=#BD7000;fontColor=#000000;rounded=1;" parent="1" vertex="1">
                    <mxGeometry x="565" y="-30" width="440" height="60" as="geometry"/>
                </mxCell>
                <mxCell id="25" value="&lt;h1&gt;Call Back&lt;/h1&gt;" style="whiteSpace=wrap;html=1;fontFamily=Comic Sans MS;fillColor=#f0a30a;strokeColor=#BD7000;fontColor=#000000;rounded=1;" parent="1" vertex="1">
                    <mxGeometry x="350" y="-30" width="120" height="60" as="geometry"/>
                </mxCell>
                <mxCell id="27" value="&lt;h1&gt;Promises&lt;/h1&gt;" style="whiteSpace=wrap;html=1;fontFamily=Comic Sans MS;fillColor=#f0a30a;strokeColor=#BD7000;fontColor=#000000;rounded=1;" parent="1" vertex="1">
                    <mxGeometry x="1110" y="-30" width="120" height="60" as="geometry"/>
                </mxCell>
                <mxCell id="30" value="&lt;h1&gt;Async/Await&lt;/h1&gt;" style="whiteSpace=wrap;html=1;fontFamily=Comic Sans MS;fillColor=#f0a30a;strokeColor=#BD7000;fontColor=#000000;rounded=1;" parent="1" vertex="1">
                    <mxGeometry x="685" y="130" width="200" height="70" as="geometry"/>
                </mxCell>
                <mxCell id="34" value="&lt;h1&gt;Crud Operations&lt;/h1&gt;" style="whiteSpace=wrap;html=1;fontFamily=Comic Sans MS;fillColor=#e3c800;strokeColor=#B09500;fontColor=#000000;rounded=1;" parent="1" vertex="1">
                    <mxGeometry x="980" y="-162.5" width="200" height="60" as="geometry"/>
                </mxCell>
                <mxCell id="36" value="&lt;h1&gt;Http/Http's Protocol's&amp;nbsp;&lt;/h1&gt;" style="ellipse;whiteSpace=wrap;html=1;rounded=0;labelBackgroundColor=#FFFF99;fontFamily=Comic Sans MS;fillColor=#e3c800;fontColor=#000000;strokeColor=#B09500;" parent="1" vertex="1">
                    <mxGeometry x="590" y="-540" width="180" height="140" as="geometry"/>
                </mxCell>
                <mxCell id="48" value="" style="edgeStyle=none;html=1;fontFamily=Comic Sans MS;fontSize=12;fontColor=#FFF3F0;" parent="1" source="43" target="47" edge="1">
                    <mxGeometry relative="1" as="geometry"/>
                </mxCell>
                <mxCell id="56" style="edgeStyle=none;html=1;exitX=1;exitY=0.5;exitDx=0;exitDy=0;entryX=0;entryY=0.5;entryDx=0;entryDy=0;fontFamily=Comic Sans MS;fontSize=12;fontColor=#FFF3F0;" parent="1" source="43" target="53" edge="1">
                    <mxGeometry relative="1" as="geometry"/>
                </mxCell>
                <mxCell id="59" style="edgeStyle=none;html=1;exitX=1;exitY=0;exitDx=0;exitDy=0;entryX=0;entryY=1;entryDx=0;entryDy=0;fontFamily=Comic Sans MS;fontSize=12;fontColor=#FFF3F0;" parent="1" source="43" target="49" edge="1">
                    <mxGeometry relative="1" as="geometry"/>
                </mxCell>
                <mxCell id="65" value="" style="edgeStyle=none;html=1;fontFamily=Comic Sans MS;fontSize=12;fontColor=#FFF3F0;" parent="1" source="43" target="64" edge="1">
                    <mxGeometry relative="1" as="geometry"/>
                </mxCell>
                <mxCell id="43" value="&lt;h1&gt;&lt;font color=&quot;#fff3f0&quot;&gt;RestFull APi's&lt;/font&gt;&lt;/h1&gt;" style="rounded=1;whiteSpace=wrap;html=1;glass=0;labelBackgroundColor=none;strokeColor=#BD7000;fontFamily=Comic Sans MS;fontSize=12;fontColor=#000000;fillColor=#f0a30a;" parent="1" vertex="1">
                    <mxGeometry x="990" y="-835" width="120" height="100" as="geometry"/>
                </mxCell>
                <mxCell id="47" value="&lt;h1&gt;Mongo DB&lt;/h1&gt;" style="whiteSpace=wrap;html=1;fontFamily=Comic Sans MS;fillColor=#f0a30a;strokeColor=#BD7000;fontColor=#000000;rounded=1;glass=0;labelBackgroundColor=none;" parent="1" vertex="1">
                    <mxGeometry x="990" y="-690" width="120" height="60" as="geometry"/>
                </mxCell>
                <mxCell id="49" value="&lt;h1&gt;Nodemon&lt;/h1&gt;" style="whiteSpace=wrap;html=1;fontFamily=Comic Sans MS;fillColor=#e3c800;strokeColor=#B09500;fontColor=#000000;rounded=1;" parent="1" vertex="1">
                    <mxGeometry x="1110" y="-940" width="120" height="60" as="geometry"/>
                </mxCell>
                <mxCell id="53" value="&lt;h1&gt;Package.json&lt;/h1&gt;" style="rounded=1;whiteSpace=wrap;html=1;glass=0;labelBackgroundColor=none;strokeColor=#BD7000;fontFamily=Comic Sans MS;fontSize=12;fontColor=#FFF3F0;fillColor=#f0a30a;" parent="1" vertex="1">
                    <mxGeometry x="1180" y="-815" width="235" height="60" as="geometry"/>
                </mxCell>
                <mxCell id="67" value="" style="edgeStyle=none;html=1;fontFamily=Comic Sans MS;fontSize=12;fontColor=default;" parent="1" source="64" target="66" edge="1">
                    <mxGeometry relative="1" as="geometry"/>
                </mxCell>
                <mxCell id="69" value="" style="edgeStyle=none;html=1;fontFamily=Comic Sans MS;fontSize=12;fontColor=default;" parent="1" source="64" target="68" edge="1">
                    <mxGeometry relative="1" as="geometry"/>
                </mxCell>
                <mxCell id="71" value="" style="edgeStyle=none;html=1;fontFamily=Comic Sans MS;fontSize=12;fontColor=default;" parent="1" source="64" target="70" edge="1">
                    <mxGeometry relative="1" as="geometry"/>
                </mxCell>
                <mxCell id="73" value="" style="edgeStyle=none;html=1;fontFamily=Comic Sans MS;fontSize=12;fontColor=default;" parent="1" source="64" target="72" edge="1">
                    <mxGeometry relative="1" as="geometry"/>
                </mxCell>
                <mxCell id="64" value="&lt;h1&gt;APi Fundamental's&lt;/h1&gt;" style="whiteSpace=wrap;html=1;fontFamily=Comic Sans MS;fillColor=#f0a30a;strokeColor=#BD7000;fontColor=default;rounded=1;glass=0;labelBackgroundColor=none;" parent="1" vertex="1">
                    <mxGeometry x="1415" y="-610" width="190" height="80" as="geometry"/>
                </mxCell>
                <mxCell id="66" value="&lt;h1&gt;Create/POST&lt;/h1&gt;" style="whiteSpace=wrap;html=1;fontFamily=Comic Sans MS;fillColor=#f0a30a;strokeColor=#BD7000;rounded=1;glass=0;labelBackgroundColor=none;" parent="1" vertex="1">
                    <mxGeometry x="1680" y="-595" width="180" height="50" as="geometry"/>
                </mxCell>
                <mxCell id="68" value="&lt;h1&gt;Read/Get&lt;/h1&gt;" style="whiteSpace=wrap;html=1;fontFamily=Comic Sans MS;fillColor=#f0a30a;strokeColor=#BD7000;rounded=1;glass=0;labelBackgroundColor=none;" parent="1" vertex="1">
                    <mxGeometry x="1220" y="-600" width="120" height="60" as="geometry"/>
                </mxCell>
                <mxCell id="70" value="&lt;h1&gt;Update/PUT/PATCH&lt;/h1&gt;" style="whiteSpace=wrap;html=1;fontFamily=Comic Sans MS;fillColor=#f0a30a;strokeColor=#BD7000;rounded=1;glass=0;labelBackgroundColor=none;" parent="1" vertex="1">
                    <mxGeometry x="1367.5" y="-460" width="285" height="60" as="geometry"/>
                </mxCell>
                <mxCell id="72" value="&lt;h1&gt;Delete&lt;/h1&gt;&lt;div&gt;&lt;br&gt;&lt;/div&gt;" style="whiteSpace=wrap;html=1;fontFamily=Comic Sans MS;fillColor=#f0a30a;strokeColor=#BD7000;rounded=1;glass=0;labelBackgroundColor=none;" parent="1" vertex="1">
                    <mxGeometry x="1450" y="-720" width="122.5" height="60" as="geometry"/>
                </mxCell>
            </root>
        </mxGraphModel>
    </diagram>
</mxfile>